<?xml version="1.0" encoding="utf-8"?>
<!-- Generator: Adobe Illustrator 16.0.4, SVG Export Plug-In . SVG Version: 6.00 Build 0)  -->
<!DOCTYPE svg PUBLIC "-//W3C//DTD SVG 1.1//EN" "http://www.w3.org/Graphics/SVG/1.1/DTD/svg11.dtd">
<svg version="1.1" id="logo" xmlns="http://www.w3.org/2000/svg" xmlns:xlink="http://www.w3.org/1999/xlink" x="0px" y="0px"
	 width="24px" height="24px" viewBox="0 0 24 24" enable-background="new 0 0 24 24" xml:space="preserve">
<g id="hut">
	<path fill="#F2F2F2" d="M12.067,5.737l-6.299,4.808l0.991,1.298l0.678-0.517v5.958h3.125v-2.834h2.752l0.008,2.834h3.375v-5.958
		l0.677,0.517l0.991-1.297L12.067,5.737z"/>
</g>
<g id="crosshair">
	<g>
		
			<line fill="none" stroke="#F2F2F2" stroke-width="2" stroke-linecap="round" stroke-linejoin="round" x1="12" y1="1" x2="12" y2="3"/>
		<polyline fill="none" stroke="#F2F2F2" stroke-width="2" stroke-linecap="round" stroke-linejoin="round" points="12,1 23,1 
			23,11.984 		"/>
		<polyline fill="none" stroke="#F2F2F2" stroke-width="2" stroke-linecap="round" stroke-linejoin="round" points="23,11.984 
			23,23 11.984,23 		"/>
		<polyline fill="none" stroke="#F2F2F2" stroke-width="2" stroke-linecap="round" stroke-linejoin="round" points="11.984,23 1,23 
			1,11.984 		"/>
		<polyline fill="none" stroke="#F2F2F2" stroke-width="2" stroke-linecap="round" stroke-linejoin="round" points="12,1 1,1 
			1,11.984 		"/>
		
			<line fill="none" stroke="#F2F2F2" stroke-width="2" stroke-linecap="round" stroke-linejoin="round" x1="11.984" y1="3.062" x2="11.984" y2="1.031"/>
		
			<line fill="none" stroke="#F2F2F2" stroke-width="2" stroke-linecap="round" stroke-linejoin="round" x1="11.984" y1="20.969" x2="11.984" y2="23"/>
		
			<line fill="none" stroke="#F2F2F2" stroke-width="2" stroke-linecap="round" stroke-linejoin="round" x1="3.031" y1="11.984" x2="1" y2="11.984"/>
		
			<line fill="none" stroke="#F2F2F2" stroke-width="2" stroke-linecap="round" stroke-linejoin="round" x1="20.969" y1="11.984" x2="23" y2="11.984"/>
	</g>
</g>
</svg>
